<?xml version="1.0" encoding="UTF-8" standalone="no"?>
<!-- Created with Inkscape (http://www.inkscape.org/) -->

<svg
   width="56.945045mm"
   height="28.663542mm"
   viewBox="0 0 56.945045 28.663542"
   version="1.1"
   id="svg22164"
   inkscape:version="1.2.1 (9c6d41e410, 2022-07-14)"
   sodipodi:docname="Beaches Resorts By Sandals Logo Version #4.svg"
   xmlns:inkscape="http://www.inkscape.org/namespaces/inkscape"
   xmlns:sodipodi="http://sodipodi.sourceforge.net/DTD/sodipodi-0.dtd"
   xmlns="http://www.w3.org/2000/svg"
   xmlns:svg="http://www.w3.org/2000/svg">
  <sodipodi:namedview
     id="namedview22166"
     pagecolor="#ffffff"
     bordercolor="#000000"
     borderopacity="0.25"
     inkscape:showpageshadow="2"
     inkscape:pageopacity="0.0"
     inkscape:pagecheckerboard="0"
     inkscape:deskcolor="#d1d1d1"
     inkscape:document-units="mm"
     showgrid="false"
     inkscape:zoom="5.9081369"
     inkscape:cx="77.604837"
     inkscape:cy="62.117721"
     inkscape:window-width="1920"
     inkscape:window-height="1009"
     inkscape:window-x="-8"
     inkscape:window-y="-8"
     inkscape:window-maximized="1"
     inkscape:current-layer="layer1" />
  <defs
     id="defs22161">
    <clipPath
       clipPathUnits="userSpaceOnUse"
       id="clipPath21165">
      <path
         d="M 333.15,223.28 H 514.23 V 143.03 H 333.15 Z"
         clip-rule="evenodd"
         id="path21163" />
    </clipPath>
    <clipPath
       clipPathUnits="userSpaceOnUse"
       id="clipPath21171">
      <path
         d="M -1,793 H 613 V -1 H -1 Z"
         id="path21169" />
    </clipPath>
    <clipPath
       clipPathUnits="userSpaceOnUse"
       id="clipPath21177">
      <path
         d="M 0,792.06 H 612 V 0.06 H 0 Z"
         id="path21175" />
    </clipPath>
  </defs>
  <g
     inkscape:label="Layer 1"
     inkscape:groupmode="layer"
     id="layer1"
     transform="translate(-122.96085,-169.09761)">
    <g
       id="g21159"
       transform="matrix(0.35277777,0,0,-0.35277777,-0.54765296,248.13047)">
      <g
         id="g21161"
         clip-path="url(#clipPath21165)">
        <g
           id="g21167"
           clip-path="url(#clipPath21171)">
          <g
             id="g21173"
             clip-path="url(#clipPath21177)">
            <path
               d="m 503.594,178.831 c -63.117,-23.285 -85.297,6.807 -137.804,-10.28 63.105,23.29 84.244,-7.245 137.804,10.28"
               style="fill:#231f20;fill-opacity:1;fill-rule:nonzero;fill:#ffff"
               id="path21211" />
            <path
               d="m 372.674,215.555 c -0.388,-1.109 -0.952,-2.4 -1.878,-4.532 0,0 -3.121,-6.682 -5.323,-14.526 -0.209,-0.673 -3.394,-11.382 -3.549,-11.998 l -1.353,-4.38 c -0.251,-0.631 -1.138,-2.291 -2.279,-2.351 -0.8,-0.179 -0.784,0.112 -1.539,-0.18 -1.897,-1.802 -2.606,-0.75 -2.242,2.416 0.163,1.407 0.622,3.45 0.776,3.862 0.285,1.159 3.98,12.043 4.192,12.628 3.801,9.853 6.895,16.42 8.555,18.993 -2.581,-0.151 -4.409,-1.162 -7.339,-1.338 -2.303,-0.144 -3.318,0.702 -3.467,1.266 -0.168,0.639 -1.18,0.289 -2.439,1.354 -1.886,1.596 8.012,2.69 14.243,2.91 9.103,0.322 16.08,-1.561 19.843,-6.161 7.001,-8.564 -5.895,-13.557 -5.895,-13.557 0,10e-4 10.812,-2.892 8.146,-13.701 -0.25,-1.014 -1.109,-2.999 -1.518,-3.63 -1.981,-3.059 -4.752,-6.044 -12.59,-6.804 -3.879,-0.377 -7.91,0.933 -9.461,2.838 -0.983,1.418 -1.38,3.593 0,5.386 3.42,4.439 15.392,4.148 11.936,2.655 -3.84,-1.657 -5.47,-2.921 -5.823,-3.602 -0.473,-0.911 0.012,-1.503 0.764,-1.674 1.928,-0.437 4.785,-0.27 6.914,0.947 10.262,5.858 3,15.448 -8.319,15.117 -2.385,-0.07 -0.811,3.634 0.864,3.86 12.714,1.715 14.264,10.518 5.451,13.24 -2.607,0.804 -4.024,0.916 -6.67,0.962"
               style="fill:#231f20;fill-opacity:1;fill-rule:nonzero;fill:#ffff"
               id="path21213" />
            <path
               d="m 393.551,185.972 c 0.311,2.139 1.318,4.526 3.619,6.943 2.08,2.183 6.214,4.458 10.371,4.562 6.152,0.158 5.033,-8.864 -8.578,-12.244 0.141,-1.019 0.937,-1.591 2.895,-1.564 2.764,0.036 4.658,0.905 6.253,1.573 0.636,0.267 1.89,0.789 3.016,1.168 0.039,0.159 0.084,0.325 0.137,0.499 4.337,11.917 14.498,10.862 16.476,9.803 0.225,-0.119 0.258,0.724 0.718,0.734 1.308,0.027 4.368,0.278 4.14,-0.136 -0.299,-0.54 -3.2,-6.485 -3.508,-7.204 -3.398,-7.954 0.423,-8.15 3.201,-4.693 0.072,4.147 2.487,7.869 6.314,10.307 3.344,2.13 7.146,1.822 8.464,1.099 0.452,-0.247 0.521,0.295 1.058,0.491 0.711,0.264 2.579,-0.499 1.933,-1.667 -0.465,-0.841 -0.401,-0.854 -1.308,-2.27 -0.669,-1.044 -2.624,-0.613 -2.551,0.233 0.187,2.141 -4.16,1.792 -7.267,-2.357 -2.2,-2.938 -2.27,-8.685 3.603,-7.51 2.027,0.405 4.411,1.236 8.306,5.647 1.636,2.236 6.859,19.506 12.194,23.993 1.309,1.1 1.971,0.787 2.35,0.534 0.381,-0.254 0.543,-0.832 0.552,-1.211 0.021,-0.912 -0.389,-1.852 -0.81,-2.887 -1.271,-3.119 -3.148,-6.865 -6.888,-13.642 -0.554,-1.002 -1.339,-2.582 -2.887,-5.961 7.531,10.548 14.07,7.362 12.428,3.059 -1.88,-4.93 -1.989,-5.598 -2.708,-7.78 -0.326,-0.987 -1.122,-4.231 3.293,-0.488 0.347,0.295 0.651,0.759 0.797,0.963 0.31,2.139 1.318,4.526 3.62,6.942 2.078,2.184 6.214,4.458 10.37,4.563 6.153,0.158 5.033,-8.864 -8.577,-12.244 0.14,-1.019 0.935,-1.592 2.894,-1.565 2.764,0.037 4.658,0.906 6.252,1.573 1.869,0.783 6.585,4.397 8.76,7.45 0.758,1.064 1.006,1.168 0.599,1.447 -0.407,0.278 -0.575,0.484 -0.331,0.856 0.245,0.372 0.438,0.657 0.438,0.657 0,0 -0.118,0.213 0.136,0.552 0.247,0.33 0.65,0.805 0.945,0.988 0.455,0.282 1.083,-0.187 1.631,-0.554 1.865,-1.249 8.208,-6.657 3.035,-12.576 0.847,-0.006 1.69,0.142 3.234,0.611 2.562,0.78 5.158,1.689 5.651,0.913 0.174,-0.273 -0.903,-0.491 -1.031,-0.669 -0.156,-0.215 -0.028,-0.626 -0.524,-0.8 l -1.715,-0.694 c -3.46,-1.401 -5.356,-2.98 -11.136,-3.073 -3.227,-0.052 -4.868,0.546 -6.352,1.187 -0.531,0.227 -0.377,0.42 -0.127,0.622 0.251,0.203 1.038,0.603 1.655,1.045 0.579,0.413 1.073,0.643 1.342,0.901 0.237,0.227 0.659,0.489 1.054,0.336 3.692,-1.438 9.986,5.381 4.506,8.226 -2.485,-2.739 -2.68,-3.633 -9.072,-8.632 -2.333,-1.826 -13.401,-7.144 -16.517,-1.11 l -1.61,-1.17 c -3.706,-3.013 -9.382,-1.958 -7.974,3.401 0.571,2.182 1.109,2.95 2.397,6.432 0.768,2.081 0.713,5.22 -6.692,-4.291 -2.168,-2.785 -2.802,-5.716 -3.036,-6.574 -0.149,-0.547 -1.192,-0.458 -2.279,-0.458 -0.29,0 -1.025,0.029 -1.398,0.029 -0.371,0 -1.117,-0.118 -0.975,0.677 0.044,0.254 0.265,1.54 1.012,3.575 -6.403,-6.656 -14.789,-4.828 -16.182,-1.865 -2.499,-3.175 -9.375,-3.939 -9.846,0.991 -6.827,-6.694 -11.895,-2.341 -12.322,0.26 -0.004,0.022 -0.021,0.1 -0.039,0.228 l -0.151,-0.119 c -2.333,-1.826 -13.081,-6.886 -16.444,-1.583 -0.581,0.917 -0.94,1.862 -0.814,3.521 m 81.083,1.988 c 11.644,2.742 10.954,11.925 2.252,3.434 -0.792,-0.772 -1.745,-2.245 -2.252,-3.434 m -48.049,6.163 c -0.773,0.451 -2.937,1.332 -6.094,-1.121 -8.44,-6.566 -2.87,-14.821 3.28,-4.414 1.864,3.527 1.61,2.944 2.814,5.535 m -27.564,-6.157 c 11.644,2.742 10.955,11.926 2.253,3.434 -0.792,-0.772 -1.745,-2.245 -2.253,-3.434"
               style="fill:#231f20;fill-opacity:1;fill-rule:nonzero;fill:#ffff"
               id="path21215" />
            <path
               d="m 506.051,182.164 c 0.386,0 0.686,-0.3 0.686,-0.674 0,-0.382 -0.3,-0.678 -0.69,-0.678 -0.387,0 -0.695,0.296 -0.695,0.678 0,0.374 0.308,0.674 0.695,0.674 z m -0.009,-0.136 c -0.295,0 -0.517,-0.242 -0.517,-0.538 0,-0.3 0.222,-0.538 0.526,-0.538 0.295,-0.004 0.513,0.238 0.513,0.538 0,0.296 -0.218,0.538 -0.517,0.538 z m -0.102,-0.887 h -0.156 v 0.67 c 0.061,0.012 0.148,0.024 0.258,0.024 0.128,0 0.185,-0.02 0.234,-0.053 0.038,-0.029 0.066,-0.082 0.066,-0.144 0,-0.078 -0.057,-0.136 -0.139,-0.16 v -0.008 c 0.065,-0.021 0.102,-0.074 0.123,-0.165 0.02,-0.102 0.033,-0.144 0.049,-0.164 h -0.168 c -0.021,0.025 -0.033,0.082 -0.054,0.16 -0.012,0.074 -0.053,0.107 -0.139,0.107 h -0.074 z m 0.004,0.378 h 0.074 c 0.086,0 0.156,0.029 0.156,0.098 0,0.062 -0.045,0.103 -0.144,0.103 -0.041,0 -0.07,-0.004 -0.086,-0.008 v -0.193"
               style="fill:#231f20;fill-opacity:1;fill-rule:nonzero;fill:#ffff"
               id="path21217" />
          </g>
        </g>
      </g>
    </g>
  </g>
</svg>
